<svg width="158" height="28" viewBox="0 0 158 28" fill="none" xmlns="http://www.w3.org/2000/svg">
<g clip-path="url(#clip0_1_140)">
<path d="M29.3208 16.2031L19.7063 25.888C19.487 26.109 19.1898 26.2331 18.8798 26.2331C17.8412 26.2331 17.3182 24.97 18.0492 24.2269L39.6573 2.25749C40.4662 1.43539 39.8879 0.0381413 38.7387 0.0381413H27.3868C26.4225 0.0381413 25.4976 0.423858 24.8156 1.11085L0.467303 25.6379C-0.396406 26.5079 0.21535 27.9951 1.4366 27.9951H14.3428H17.6146H39.6609C40.8808 27.9951 41.4916 26.5097 40.6288 25.6411L31.2594 16.2031C30.7243 15.664 29.856 15.664 29.3208 16.2031Z" fill="#FF0000"/>
<path d="M67.4551 7.09735V9.30536C67.4551 9.54192 67.3937 9.78836 67.27 10.0447C67.1464 10.3009 66.9865 10.5345 66.7904 10.7445C66.5943 10.9545 66.3612 11.129 66.0933 11.2669C65.8247 11.405 65.5528 11.4739 65.2771 11.4739H52.203V0.039547H65.2771C65.5528 0.039547 65.8253 0.108547 66.0933 0.246549C66.3625 0.38455 66.5943 0.559023 66.7904 0.76898C66.9865 0.978941 67.1464 1.21256 67.27 1.46885C67.3937 1.72513 67.4551 1.97157 67.4551 2.20814V4.41616C67.4551 4.49502 67.415 4.60049 67.3354 4.7316C67.2551 4.8627 67.1606 4.99774 67.0512 5.13574C66.9425 5.27374 66.837 5.39893 66.736 5.51032C66.6344 5.6217 66.5548 5.7045 66.4959 5.75675C66.5548 5.82279 66.6344 5.91151 66.736 6.02289C66.837 6.13428 66.9425 6.25651 67.0512 6.38761C67.1606 6.51871 67.2551 6.64686 67.3354 6.77201C67.415 6.89722 67.4551 7.00563 67.4551 7.09735ZM57.7584 4.67245H63.0965V2.20814H56.5596V9.30536H63.0965V6.84103H57.7584V4.67245Z" fill="white"/>
<path d="M82.9491 11.4725H71.3784C71.0877 11.4725 70.812 11.4035 70.5498 11.2656C70.2883 11.1275 70.0592 10.953 69.8637 10.7431C69.6676 10.5332 69.5077 10.2996 69.3841 10.0432C69.2605 9.78698 69.199 9.54054 69.199 9.30392V2.20673C69.199 1.97016 69.2605 1.72373 69.3841 1.46744C69.5077 1.21115 69.6676 0.977534 69.8637 0.76758C70.0592 0.557618 70.2883 0.383145 70.5498 0.245143C70.8107 0.107142 71.0864 0.0381413 71.3784 0.0381413H82.9491V2.20673H73.5571V4.67104H82.0552V6.83965H73.5571V9.30392H82.9491V11.4725Z" fill="white"/>
<path d="M90.9682 0.039547L97.004 8.51678V0.039547H100.164V11.4739H93.9761L87.6354 2.60243V11.4739H84.6935V0.039547H90.9695H90.9682Z" fill="white"/>
<path d="M101.906 0.039547H106.264V11.4739H101.906V0.039547Z" fill="white"/>
<path d="M74.2568 16.5609V27.9952H69.8987V19.1632L64.2557 27.9952H60.7041L55.0386 19.1434V27.9952H52.0972V16.5609H58.3514L63.2538 24.3875L68.2656 16.5609H74.2574H74.2568Z" fill="white"/>
<path d="M91.2755 18.7295V25.8267C91.2755 26.0632 91.214 26.3097 91.0904 26.566C90.9661 26.8222 90.8062 27.0559 90.6108 27.2659C90.4146 27.4758 90.1816 27.6503 89.9136 27.7882C89.645 27.9263 89.3732 27.9952 89.0968 27.9952H78.2018C77.9112 27.9952 77.6355 27.9263 77.3733 27.7882C77.1118 27.6503 76.8827 27.4758 76.6872 27.2659C76.4911 27.0559 76.3312 26.8222 76.2076 26.566C76.084 26.3097 76.0225 26.0632 76.0225 25.8267V18.7295C76.0225 18.4929 76.084 18.2465 76.2076 17.9901C76.3312 17.7339 76.4911 17.5003 76.6872 17.2903C76.8827 17.0803 77.1118 16.9059 77.3733 16.7679C77.6342 16.6298 77.9099 16.5609 78.2018 16.5609H89.0968C89.3732 16.5609 89.6457 16.6298 89.9136 16.7679C90.1829 16.9059 90.4146 17.0803 90.6108 17.2903C90.8062 17.5003 90.9661 17.7339 91.0904 17.9901C91.214 18.2465 91.2755 18.4929 91.2755 18.7295ZM80.3799 18.7295V25.8267H86.9168V18.7295H80.3799Z" fill="white"/>
<path d="M93.0193 18.7295V16.5609H106.965V18.7295H102.171V27.9952H97.813V18.7295H93.0193Z" fill="white"/>
<path d="M123.961 18.7295V25.8267C123.961 26.0632 123.9 26.3097 123.776 26.566C123.652 26.8222 123.492 27.0559 123.296 27.2659C123.1 27.4758 122.868 27.6503 122.6 27.7882C122.331 27.9263 122.059 27.9952 121.783 27.9952H110.887C110.597 27.9952 110.321 27.9263 110.059 27.7882C109.798 27.6503 109.569 27.4758 109.373 27.2659C109.177 27.0559 109.017 26.8222 108.893 26.566C108.769 26.3097 108.708 26.0632 108.708 25.8267V18.7295C108.708 18.4929 108.769 18.2465 108.893 17.9901C109.017 17.7339 109.177 17.5003 109.373 17.2903C109.569 17.0803 109.798 16.9059 110.059 16.7679C110.32 16.6298 110.596 16.5609 110.887 16.5609H121.783C122.059 16.5609 122.331 16.6298 122.6 16.7679C122.868 16.9059 123.1 17.0803 123.296 17.2903C123.492 17.5003 123.652 17.7339 123.776 17.9901C123.9 18.2465 123.961 18.4929 123.961 18.7295ZM113.065 18.7295V25.8267H119.602V18.7295H113.065Z" fill="white"/>
<path d="M140.958 21.1938C140.958 21.4303 140.896 21.6768 140.773 21.933C140.649 22.1893 140.489 22.423 140.293 22.6329C140.098 22.8429 139.865 23.0174 139.597 23.1553C139.327 23.2934 139.055 23.3623 138.78 23.3623H136.818L141.569 27.9952H136.47L131.262 23.0666V21.1938H136.6V18.7295H130.064V27.9952H125.706V16.5609H138.78C139.055 16.5609 139.328 16.6298 139.597 16.7679C139.865 16.9059 140.098 17.0803 140.293 17.2903C140.489 17.5003 140.649 17.7339 140.773 17.9901C140.896 18.2465 140.958 18.4929 140.958 18.7295V21.1938Z" fill="white"/>
<path d="M153.597 23.3623H144.88C144.59 23.3623 144.314 23.2934 144.052 23.1553C143.79 23.0174 143.561 22.8429 143.366 22.6329C143.17 22.423 143.01 22.1893 142.886 21.933C142.762 21.6768 142.701 21.4303 142.701 21.1938V18.7295C142.701 18.4929 142.762 18.2465 142.886 17.9901C143.01 17.7339 143.17 17.5003 143.366 17.2903C143.561 17.0803 143.79 16.9059 144.052 16.7679C144.313 16.6298 144.589 16.5609 144.88 16.5609H157.954V18.7295H147.058V21.1938H155.775C156.05 21.1938 156.323 21.2627 156.591 21.4008C156.86 21.5387 157.092 21.7132 157.288 21.9232C157.484 22.1332 157.644 22.3668 157.768 22.6231C157.891 22.8793 157.953 23.1258 157.953 23.3623V25.8267C157.953 26.0632 157.891 26.3097 157.768 26.566C157.644 26.8222 157.484 27.0559 157.288 27.2659C157.092 27.4758 156.859 27.6503 156.591 27.7882C156.322 27.9263 156.05 27.9952 155.775 27.9952H142.701V25.8267H153.597V23.3623Z" fill="white"/>
</g>
<defs>
<clipPath id="clip0_1_140">
<rect width="158" height="28" fill="white"/>
</clipPath>
</defs>
</svg>
