<svg width="24" height="24" viewBox="0 0 24 24" fill="none" xmlns="http://www.w3.org/2000/svg">
<path d="M17.2333 14.1503C16.8642 13.7666 16.4191 13.5615 15.9473 13.5615C15.4794 13.5615 15.0304 13.7628 14.6462 14.1465L13.4439 15.3432C13.345 15.2901 13.2461 15.2407 13.151 15.1913C13.014 15.1229 12.8847 15.0583 12.7743 14.9899C11.6482 14.2757 10.6248 13.345 9.64319 12.1407C9.16762 11.5404 8.84803 11.0351 8.61596 10.5223C8.92793 10.2374 9.21708 9.94103 9.49861 9.6561C9.60514 9.54973 9.71167 9.43956 9.8182 9.33319C10.6172 8.53539 10.6172 7.50206 9.8182 6.70426L8.77955 5.66713C8.66161 5.54936 8.53987 5.42779 8.42573 5.30622C8.19746 5.07068 7.95777 4.82755 7.71047 4.59961C7.34143 4.2349 6.9001 4.04115 6.43595 4.04115C5.97179 4.04115 5.52286 4.2349 5.1424 4.59961C5.1386 4.6034 5.1386 4.6034 5.13479 4.6072L3.84124 5.91027C3.35426 6.39654 3.07653 6.98919 3.01566 7.67681C2.92435 8.78613 3.25154 9.81946 3.50264 10.4957C4.11898 12.1559 5.03968 13.6945 6.41312 15.3432C8.07951 17.3301 10.0845 18.8991 12.3749 20.0046C13.2499 20.4187 14.4179 20.9088 15.7229 20.9924C15.8028 20.9962 15.8865 21 15.9625 21C16.8414 21 17.5795 20.6847 18.1578 20.0578C18.1616 20.0502 18.1692 20.0464 18.173 20.0388C18.3708 19.7995 18.5991 19.5829 18.8388 19.3512C19.0024 19.1954 19.1698 19.0321 19.3334 18.8611C19.71 18.4698 19.9079 18.014 19.9079 17.5467C19.9079 17.0756 19.7062 16.6235 19.322 16.2436L17.2333 14.1503ZM18.5953 18.1507C18.5915 18.1507 18.5915 18.1545 18.5953 18.1507C18.4469 18.3103 18.2947 18.4546 18.1311 18.6142C17.8838 18.8497 17.6327 19.0967 17.3969 19.374C17.0126 19.7843 16.5599 19.978 15.9664 19.978C15.9093 19.978 15.8484 19.978 15.7913 19.9742C14.6614 19.9021 13.6113 19.4614 12.8238 19.0853C10.6704 18.0443 8.77955 16.5665 7.20827 14.6936C5.91092 13.1322 5.04348 11.6886 4.46899 10.1386C4.11517 9.19262 3.98582 8.45561 4.04288 7.76039C4.08093 7.31591 4.25213 6.9474 4.56791 6.63208L5.86527 5.33662C6.05169 5.16186 6.24953 5.06688 6.44356 5.06688C6.68324 5.06688 6.87728 5.21125 6.99902 5.33282C7.00283 5.33662 7.00663 5.34041 7.01044 5.34421C7.24251 5.56076 7.46318 5.7849 7.69526 6.02424C7.8132 6.14581 7.93494 6.26738 8.05669 6.39274L9.09533 7.42988C9.49861 7.83257 9.49861 8.20488 9.09533 8.60757C8.985 8.71774 8.87847 8.82792 8.76814 8.93429C8.44856 9.261 8.14419 9.56493 7.8132 9.86125C7.80559 9.86885 7.79798 9.87265 7.79417 9.88025C7.46698 10.207 7.52785 10.5261 7.59634 10.7426C7.60014 10.754 7.60395 10.7654 7.60775 10.7768C7.87787 11.4302 8.25833 12.0457 8.83662 12.7789L8.84043 12.7827C9.89048 14.0744 10.9976 15.0811 12.2189 15.8523C12.3749 15.9511 12.5346 16.0309 12.6868 16.1068C12.8238 16.1752 12.9531 16.2398 13.0635 16.3082C13.0787 16.3158 13.0939 16.3272 13.1091 16.3348C13.2385 16.3994 13.3602 16.4298 13.4858 16.4298C13.8016 16.4298 13.9994 16.2322 14.0641 16.1676L15.3652 14.8684C15.4946 14.7392 15.7 14.5834 15.9397 14.5834C16.1756 14.5834 16.3696 14.7316 16.4876 14.8608C16.4914 14.8646 16.4914 14.8646 16.4952 14.8684L18.5915 16.9616C18.9834 17.3491 18.9834 17.748 18.5953 18.1507Z" fill="white"/>
<path d="M12.7287 7.28172C13.7255 7.44888 14.631 7.91995 15.3538 8.64177C16.0767 9.36358 16.5446 10.2677 16.7159 11.2631C16.7577 11.5138 16.9746 11.6886 17.2219 11.6886C17.2523 11.6886 17.2789 11.6848 17.3094 11.681C17.5909 11.6354 17.7773 11.3695 17.7317 11.0883C17.5262 9.88405 16.9555 8.78613 16.0843 7.91616C15.2131 7.04618 14.1135 6.47633 12.9075 6.27118C12.626 6.22559 12.3634 6.41174 12.314 6.68907C12.2645 6.9664 12.4471 7.23613 12.7287 7.28172Z" fill="white"/>
<path d="M20.9921 10.9402C20.6535 8.95709 19.7176 7.15255 18.2795 5.71652C16.8414 4.28049 15.0342 3.34593 13.0482 3.00782C12.7705 2.95843 12.508 3.14838 12.4585 3.42571C12.4129 3.70684 12.5993 3.96897 12.8808 4.01836C14.6538 4.31848 16.2707 5.15807 17.5566 6.43834C18.8426 7.7224 19.6796 9.33699 19.9801 11.1073C20.022 11.3581 20.2388 11.5328 20.4861 11.5328C20.5166 11.5328 20.5432 11.529 20.5736 11.5252C20.8514 11.4834 21.0416 11.2175 20.9921 10.9402Z" fill="white"/>
</svg>
