<svg width="140" height="28" viewBox="0 0 140 28" fill="none" xmlns="http://www.w3.org/2000/svg">
<path d="M39.8609 4.13565C37.7262 0.78698 34.0569 0.133011 31.5759 0.0714317C29.3949 0.0209369 19.9322 0.0110842 14.4199 0.00738949C3.56852 0 9.77458 0 0 0V5.38817C11.6057 5.38817 25.3793 5.36107 31.4098 5.4559C32.4867 5.47315 33.5528 5.58522 34.3996 6.36604C34.781 6.71419 35.0529 7.1734 35.1798 7.68403C35.3067 8.19466 35.2828 8.73312 35.1112 9.22947C34.5431 10.8305 32.9765 11.2357 31.4063 11.2603C29.0166 11.2985 22.4488 11.3133 17.5485 11.3195C5.53482 11.3305 10.7399 11.3305 0 11.3305V16.6978C11.5974 16.6978 25.403 16.6744 31.4098 16.7655C33.2848 16.7938 35.2642 17.4712 35.2642 19.64C35.2642 21.8088 33.2836 22.5195 31.4098 22.5478C25.4172 22.6402 11.6045 22.6155 0 22.6155V27.9951C11.6413 27.9951 26.876 28.0382 31.5759 27.9249C34.0569 27.8658 37.725 27.2118 39.8621 23.8607C41.8663 20.7177 41.3765 16.6239 38.7437 13.9982C41.3777 11.3712 41.864 7.28111 39.8609 4.13565Z" fill="white"/>
<path d="M134.605 3.24029C131.063 0.601011 127.217 0.227842 124.098 0.152716C121.025 0.0788207 116.389 0.0443364 112.293 0.0295575C102.3 -0.0147795 108.308 -4.7544e-07 98.7895 -4.7544e-07V5.40418C108.92 5.40418 116.024 5.31674 123.846 5.54581C126.143 5.61232 128.607 5.86356 130.826 7.46338C132.927 8.97946 134.173 11.3921 134.173 13.9982C134.175 15.2858 133.873 16.5543 133.296 17.6937C132.718 18.8331 131.882 19.8089 130.859 20.5366C128.641 22.1377 126.177 22.384 123.879 22.4554C116.052 22.6833 108.953 22.5971 98.8227 22.5971L98.7895 27.9926C108.979 27.9926 116.305 28.032 124.099 27.8436C127.218 27.7685 131.064 27.3953 134.606 24.756C137.966 22.2534 140.001 18.321 140.001 13.9982C140.001 9.6753 137.965 5.74286 134.605 3.24029Z" fill="white"/>
<path d="M56.9172 12.0916C54.2026 12.0374 53.3392 11.1162 53.3202 8.30821C53.3013 5.7145 53.3131 2.64294 53.3131 0.00366211H47.3288C47.3288 2.66757 47.2802 8.05943 47.381 10.6642C47.5755 15.7285 49.1777 17.3049 54.1575 17.481C57.611 17.6042 60.3541 17.5611 65.1299 17.5586V12.1397C61.3029 12.1347 59.7433 12.1458 56.9172 12.0916Z" fill="white"/>
<path d="M86.5742 8.40554C86.5553 11.1397 85.6978 12.0362 82.9784 12.0904C81.6739 12.1163 78.269 12.1298 75.4631 12.136H75.437H67.7177V27.9926H74.7527V17.5574H75.4643V17.5636C79.1241 17.5636 83.6971 17.5463 85.4262 17.4909C90.712 17.3234 92.3237 15.7753 92.517 10.663C92.5419 9.9795 92.5585 9.11616 92.568 8.16785V0H86.5861C86.5861 2.70948 86.5979 5.73794 86.5742 8.40554Z" fill="white"/>
</svg>
